<?xml version="1.0" encoding="utf-8"?>
<!-- Generator: Adobe Illustrator 25.0.1, SVG Export Plug-In . SVG Version: 6.00 Build 0)  -->
<svg version="1.0" id="katman_1" xmlns="http://www.w3.org/2000/svg" xmlns:xlink="http://www.w3.org/1999/xlink" x="0px" y="0px"
	 viewBox="0 0 336 199" style="enable-background:new 0 0 336 199;" xml:space="preserve">
<style type="text/css">
	.st0{fill-rule:evenodd;clip-rule:evenodd;fill:#231F20;}
	.st1{filter:url(#Adobe_OpacityMaskFilter);}
	.st2{fill-rule:evenodd;clip-rule:evenodd;fill:#FFFFFF;}
	.st3{mask:url(#mask-2_1_);fill-rule:evenodd;clip-rule:evenodd;fill:#231F20;}
	.st4{filter:url(#Adobe_OpacityMaskFilter_1_);}
	.st5{mask:url(#mask-2_2_);fill-rule:evenodd;clip-rule:evenodd;fill:#231F20;}
	.st6{filter:url(#Adobe_OpacityMaskFilter_2_);}
	.st7{mask:url(#mask-2_3_);fill-rule:evenodd;clip-rule:evenodd;fill:#231F20;}
	.st8{filter:url(#Adobe_OpacityMaskFilter_3_);}
	.st9{mask:url(#mask-2_4_);fill-rule:evenodd;clip-rule:evenodd;fill:#231F20;}
	.st10{filter:url(#Adobe_OpacityMaskFilter_4_);}
	.st11{mask:url(#mask-2_5_);fill-rule:evenodd;clip-rule:evenodd;fill:#231F20;}
	.st12{filter:url(#Adobe_OpacityMaskFilter_5_);}
	.st13{mask:url(#mask-2_6_);fill-rule:evenodd;clip-rule:evenodd;fill:#231F20;}
	.st14{filter:url(#Adobe_OpacityMaskFilter_6_);}
	.st15{mask:url(#mask-2_7_);fill-rule:evenodd;clip-rule:evenodd;fill:#231F20;}
	.st16{filter:url(#Adobe_OpacityMaskFilter_7_);}
	.st17{mask:url(#mask-2_8_);fill-rule:evenodd;clip-rule:evenodd;fill:#231F20;}
	.st18{filter:url(#Adobe_OpacityMaskFilter_8_);}
	.st19{mask:url(#mask-2_9_);fill-rule:evenodd;clip-rule:evenodd;fill:#231F20;}
	.st20{filter:url(#Adobe_OpacityMaskFilter_9_);}
	.st21{mask:url(#mask-2_10_);fill-rule:evenodd;clip-rule:evenodd;fill:#231F20;}
	.st22{filter:url(#Adobe_OpacityMaskFilter_10_);}
	.st23{mask:url(#mask-2_11_);fill-rule:evenodd;clip-rule:evenodd;fill:#231F20;}
	.st24{filter:url(#Adobe_OpacityMaskFilter_11_);}
	.st25{mask:url(#mask-2_12_);fill-rule:evenodd;clip-rule:evenodd;fill:#231F20;}
	.st26{filter:url(#Adobe_OpacityMaskFilter_12_);}
	.st27{mask:url(#mask-2_13_);fill-rule:evenodd;clip-rule:evenodd;fill:#231F20;}
	.st28{filter:url(#Adobe_OpacityMaskFilter_13_);}
	.st29{mask:url(#mask-2_14_);fill-rule:evenodd;clip-rule:evenodd;fill:#231F20;}
	.st30{filter:url(#Adobe_OpacityMaskFilter_14_);}
	.st31{mask:url(#mask-2_15_);fill-rule:evenodd;clip-rule:evenodd;fill:#231F20;}
	.st32{filter:url(#Adobe_OpacityMaskFilter_15_);}
	.st33{mask:url(#mask-2_16_);fill-rule:evenodd;clip-rule:evenodd;fill:#231F20;}
	.st34{filter:url(#Adobe_OpacityMaskFilter_16_);}
	.st35{mask:url(#mask-2_17_);fill-rule:evenodd;clip-rule:evenodd;fill:#231F20;}
	.st36{filter:url(#Adobe_OpacityMaskFilter_17_);}
	.st37{mask:url(#mask-2_18_);fill-rule:evenodd;clip-rule:evenodd;fill:#231F20;}
	.st38{filter:url(#Adobe_OpacityMaskFilter_18_);}
	.st39{mask:url(#mask-2_19_);fill-rule:evenodd;clip-rule:evenodd;fill:#231F20;}
	.st40{filter:url(#Adobe_OpacityMaskFilter_19_);}
	.st41{mask:url(#mask-2_20_);fill-rule:evenodd;clip-rule:evenodd;fill:#231F20;}
	.st42{filter:url(#Adobe_OpacityMaskFilter_20_);}
	.st43{mask:url(#mask-2_21_);fill-rule:evenodd;clip-rule:evenodd;fill:#231F20;}
	.st44{filter:url(#Adobe_OpacityMaskFilter_21_);}
	.st45{mask:url(#mask-2_22_);fill-rule:evenodd;clip-rule:evenodd;fill:#231F20;}
	.st46{filter:url(#Adobe_OpacityMaskFilter_22_);}
	.st47{mask:url(#mask-2_23_);fill-rule:evenodd;clip-rule:evenodd;fill:#231F20;}
	.st48{filter:url(#Adobe_OpacityMaskFilter_23_);}
	.st49{mask:url(#mask-2_24_);fill-rule:evenodd;clip-rule:evenodd;fill:#231F20;}
	.st50{filter:url(#Adobe_OpacityMaskFilter_24_);}
	.st51{mask:url(#mask-2_25_);fill-rule:evenodd;clip-rule:evenodd;fill:#231F20;}
	.st52{filter:url(#Adobe_OpacityMaskFilter_25_);}
	.st53{mask:url(#mask-2_26_);fill-rule:evenodd;clip-rule:evenodd;fill:#231F20;}
	.st54{filter:url(#Adobe_OpacityMaskFilter_26_);}
	.st55{mask:url(#mask-2_27_);fill-rule:evenodd;clip-rule:evenodd;fill:#231F20;}
	.st56{filter:url(#Adobe_OpacityMaskFilter_27_);}
	.st57{mask:url(#mask-2_28_);fill-rule:evenodd;clip-rule:evenodd;fill:#231F20;}
	.st58{filter:url(#Adobe_OpacityMaskFilter_28_);}
	.st59{mask:url(#mask-2_29_);fill-rule:evenodd;clip-rule:evenodd;fill:#231F20;}
	.st60{filter:url(#Adobe_OpacityMaskFilter_29_);}
	.st61{mask:url(#mask-2_30_);fill-rule:evenodd;clip-rule:evenodd;fill:#F69464;}
</style>
<desc>Created with Sketch.</desc>
<g id="HVMI-Final-Logo-POS">
	<g id="Group-44">
		<path id="Fill-1" class="st0" d="M83.9,115.7c0.2,0,0.4,0,0.5,0c0.2,0,0.4-0.1,0.5-0.1c0.2-0.1,0.3-0.2,0.4-0.3
			c0.1-0.1,0.2-0.3,0.2-0.6c0-0.2,0-0.4-0.1-0.6c-0.1-0.1-0.2-0.3-0.4-0.4c-0.2-0.1-0.3-0.1-0.5-0.2c-0.2,0-0.4,0-0.5,0h-1.2v2.2
			H83.9z M83.9,112.6c0.1,0,0.3,0,0.4-0.1c0.1,0,0.3-0.1,0.4-0.2c0.1-0.1,0.2-0.2,0.3-0.3c0.1-0.1,0.1-0.3,0.1-0.5
			c0-0.2,0-0.4-0.1-0.5c-0.1-0.1-0.2-0.2-0.3-0.3c-0.1-0.1-0.3-0.1-0.4-0.1c-0.1,0-0.3,0-0.4,0h-1.2v1.9H83.9z M81.8,109.9H84
			c0.3,0,0.6,0,0.9,0.1c0.3,0.1,0.5,0.2,0.6,0.4c0.2,0.2,0.3,0.3,0.4,0.5c0.1,0.2,0.1,0.4,0.1,0.7c0,0.2,0,0.4-0.1,0.6
			c-0.1,0.2-0.2,0.3-0.3,0.4c-0.1,0.1-0.2,0.2-0.4,0.3c-0.1,0.1-0.2,0.1-0.4,0.1c0.1,0,0.3,0.1,0.5,0.1c0.2,0.1,0.3,0.2,0.5,0.3
			c0.1,0.1,0.3,0.3,0.4,0.5c0.1,0.2,0.2,0.5,0.2,0.8c0,0.4-0.1,0.7-0.2,0.9c-0.1,0.2-0.3,0.4-0.5,0.6c-0.2,0.1-0.5,0.2-0.8,0.3
			c-0.3,0.1-0.6,0.1-1,0.1h-2.1V109.9z"/>
		<polygon id="Fill-3" class="st0" points="90.9,113.5 88.6,109.9 89.7,109.9 91.4,112.7 93.2,109.9 94.2,109.9 91.9,113.5 
			91.9,116.5 90.9,116.5 		"/>
		<polygon id="Fill-5" class="st0" points="100.7,109.9 101.6,109.9 103.7,113.3 105.7,109.9 106.6,109.9 106.9,116.5 106,116.5 
			105.7,111.4 103.9,114.6 103.4,114.6 101.5,111.4 101.3,116.5 100.4,116.5 		"/>
		<path id="Fill-7" class="st0" d="M113.8,113.9l-1.1-2.9l-1.1,2.9H113.8z M112.3,109.9h1l2.6,6.7h-1.1l-0.7-1.9h-2.7l-0.7,1.9h-1
			L112.3,109.9z"/>
		<path id="Fill-9" class="st0" d="M120.9,113c0.4,0,0.7-0.1,0.9-0.3c0.2-0.2,0.3-0.5,0.3-0.8c0-0.4-0.1-0.7-0.3-0.9
			c-0.2-0.2-0.5-0.3-0.9-0.3h-1.3v2.3H120.9z M118.7,109.9h2.1c0.4,0,0.8,0.1,1.1,0.2c0.3,0.1,0.5,0.3,0.7,0.5
			c0.2,0.2,0.3,0.4,0.4,0.6c0.1,0.2,0.1,0.5,0.1,0.7c0,0.4-0.1,0.8-0.3,1.1c-0.2,0.3-0.5,0.6-0.9,0.7l1.6,2.9h-1.1l-1.4-2.7h-1.3
			v2.7h-0.9V109.9z"/>
		<path id="Fill-11" class="st0" d="M128.7,113c0.4,0,0.7-0.1,0.9-0.3c0.2-0.2,0.3-0.5,0.3-0.8c0-0.4-0.1-0.7-0.3-0.9
			c-0.2-0.2-0.5-0.3-0.9-0.3h-1.3v2.3H128.7z M126.5,109.9h2.1c0.4,0,0.8,0.1,1.1,0.2c0.3,0.1,0.5,0.3,0.7,0.5
			c0.2,0.2,0.3,0.4,0.4,0.6c0.1,0.2,0.1,0.5,0.1,0.7c0,0.4-0.1,0.8-0.3,1.1c-0.2,0.3-0.5,0.6-0.9,0.7l1.6,2.9h-1.1l-1.4-2.7h-1.3
			v2.7h-0.9V109.9z"/>
		<g id="Clip-14">
		</g>
		<defs>
			<filter id="Adobe_OpacityMaskFilter" filterUnits="userSpaceOnUse" x="134.3" y="109.9" width="1" height="6.7">
				<feColorMatrix  type="matrix" values="1 0 0 0 0  0 1 0 0 0  0 0 1 0 0  0 0 0 1 0"/>
			</filter>
		</defs>
		<mask maskUnits="userSpaceOnUse" x="134.3" y="109.9" width="1" height="6.7" id="mask-2_1_">
			<g class="st1">
				<polygon id="path-1_1_" class="st2" points="32,123.2 303.4,123.2 303.4,75 32,75 				"/>
			</g>
		</mask>
		<polygon id="Fill-13" class="st3" points="134.3,116.5 135.2,116.5 135.2,109.9 134.3,109.9 		"/>
		<defs>
			<filter id="Adobe_OpacityMaskFilter_1_" filterUnits="userSpaceOnUse" x="138.4" y="109.7" width="6.8" height="7">
				<feColorMatrix  type="matrix" values="1 0 0 0 0  0 1 0 0 0  0 0 1 0 0  0 0 0 1 0"/>
			</filter>
		</defs>
		<mask maskUnits="userSpaceOnUse" x="138.4" y="109.7" width="6.8" height="7" id="mask-2_2_">
			<g class="st4">
				<polygon id="path-1_2_" class="st2" points="32,123.2 303.4,123.2 303.4,75 32,75 				"/>
			</g>
		</mask>
		<path id="Fill-15" class="st5" d="M141.8,115.8c0.4,0,0.7-0.1,1-0.2c0.3-0.1,0.5-0.3,0.8-0.6c0.2-0.2,0.4-0.5,0.5-0.8
			c0.1-0.3,0.2-0.7,0.2-1c0-0.4-0.1-0.7-0.2-1c-0.1-0.3-0.3-0.6-0.5-0.8c-0.2-0.2-0.5-0.4-0.8-0.6c-0.3-0.1-0.6-0.2-1-0.2
			c-0.4,0-0.7,0.1-1,0.2c-0.3,0.1-0.5,0.3-0.8,0.6c-0.2,0.2-0.4,0.5-0.5,0.8c-0.1,0.3-0.2,0.7-0.2,1c0,0.4,0.1,0.7,0.2,1
			c0.1,0.3,0.3,0.6,0.5,0.8c0.2,0.2,0.5,0.4,0.8,0.6C141.1,115.7,141.5,115.8,141.8,115.8 M141.8,116.7c-0.5,0-0.9-0.1-1.3-0.3
			c-0.4-0.2-0.8-0.4-1.1-0.8c-0.3-0.3-0.5-0.7-0.7-1.1c-0.2-0.4-0.3-0.9-0.3-1.4c0-0.5,0.1-0.9,0.3-1.4c0.2-0.4,0.4-0.8,0.7-1.1
			c0.3-0.3,0.7-0.6,1.1-0.8s0.9-0.3,1.3-0.3c0.5,0,0.9,0.1,1.3,0.3c0.4,0.2,0.8,0.4,1.1,0.8c0.3,0.3,0.5,0.7,0.7,1.1
			c0.2,0.4,0.3,0.9,0.3,1.4c0,0.5-0.1,0.9-0.3,1.4c-0.2,0.4-0.4,0.8-0.7,1.1c-0.3,0.3-0.7,0.6-1.1,0.8
			C142.8,116.6,142.3,116.7,141.8,116.7"/>
		<defs>
			<filter id="Adobe_OpacityMaskFilter_2_" filterUnits="userSpaceOnUse" x="147.6" y="109.9" width="5.7" height="6.7">
				<feColorMatrix  type="matrix" values="1 0 0 0 0  0 1 0 0 0  0 0 1 0 0  0 0 0 1 0"/>
			</filter>
		</defs>
		<mask maskUnits="userSpaceOnUse" x="147.6" y="109.9" width="5.7" height="6.7" id="mask-2_3_">
			<g class="st6">
				<polygon id="path-1_3_" class="st2" points="32,123.2 303.4,123.2 303.4,75 32,75 				"/>
			</g>
		</mask>
		<polygon id="Fill-16" class="st7" points="149.9,110.7 147.6,110.7 147.6,109.9 153.3,109.9 153.3,110.7 150.9,110.7 150.9,116.5 
			149.9,116.5 		"/>
		<defs>
			<filter id="Adobe_OpacityMaskFilter_3_" filterUnits="userSpaceOnUse" x="155.9" y="109.9" width="5.7" height="6.7">
				<feColorMatrix  type="matrix" values="1 0 0 0 0  0 1 0 0 0  0 0 1 0 0  0 0 0 1 0"/>
			</filter>
		</defs>
		<mask maskUnits="userSpaceOnUse" x="155.9" y="109.9" width="5.7" height="6.7" id="mask-2_4_">
			<g class="st8">
				<polygon id="path-1_4_" class="st2" points="32,123.2 303.4,123.2 303.4,75 32,75 				"/>
			</g>
		</mask>
		<polygon id="Fill-17" class="st9" points="158.3,110.7 155.9,110.7 155.9,109.9 161.6,109.9 161.6,110.7 159.2,110.7 159.2,116.5 
			158.3,116.5 		"/>
		<defs>
			<filter id="Adobe_OpacityMaskFilter_4_" filterUnits="userSpaceOnUse" x="168" y="109.9" width="1" height="6.7">
				<feColorMatrix  type="matrix" values="1 0 0 0 0  0 1 0 0 0  0 0 1 0 0  0 0 0 1 0"/>
			</filter>
		</defs>
		<mask maskUnits="userSpaceOnUse" x="168" y="109.9" width="1" height="6.7" id="mask-2_5_">
			<g class="st10">
				<polygon id="path-1_5_" class="st2" points="32,123.2 303.4,123.2 303.4,75 32,75 				"/>
			</g>
		</mask>
		<polygon id="Fill-18" class="st11" points="168,116.5 169,116.5 169,109.9 168,109.9 		"/>
		<defs>
			<filter id="Adobe_OpacityMaskFilter_5_" filterUnits="userSpaceOnUse" x="172.5" y="109.9" width="5.6" height="6.7">
				<feColorMatrix  type="matrix" values="1 0 0 0 0  0 1 0 0 0  0 0 1 0 0  0 0 0 1 0"/>
			</filter>
		</defs>
		<mask maskUnits="userSpaceOnUse" x="172.5" y="109.9" width="5.6" height="6.7" id="mask-2_6_">
			<g class="st12">
				<polygon id="path-1_6_" class="st2" points="32,123.2 303.4,123.2 303.4,75 32,75 				"/>
			</g>
		</mask>
		<polygon id="Fill-19" class="st13" points="172.5,109.9 173.5,109.9 177.1,115.1 177.1,109.9 178,109.9 178,116.5 177.1,116.5 
			173.4,111.3 173.4,116.5 172.5,116.5 		"/>
		<defs>
			<filter id="Adobe_OpacityMaskFilter_6_" filterUnits="userSpaceOnUse" x="180.9" y="109.9" width="5.7" height="6.7">
				<feColorMatrix  type="matrix" values="1 0 0 0 0  0 1 0 0 0  0 0 1 0 0  0 0 0 1 0"/>
			</filter>
		</defs>
		<mask maskUnits="userSpaceOnUse" x="180.9" y="109.9" width="5.7" height="6.7" id="mask-2_7_">
			<g class="st14">
				<polygon id="path-1_7_" class="st2" points="32,123.2 303.4,123.2 303.4,75 32,75 				"/>
			</g>
		</mask>
		<polygon id="Fill-20" class="st15" points="183.3,110.7 180.9,110.7 180.9,109.9 186.6,109.9 186.6,110.7 184.3,110.7 
			184.3,116.5 183.3,116.5 		"/>
		<defs>
			<filter id="Adobe_OpacityMaskFilter_7_" filterUnits="userSpaceOnUse" x="189.5" y="109.9" width="4.4" height="6.7">
				<feColorMatrix  type="matrix" values="1 0 0 0 0  0 1 0 0 0  0 0 1 0 0  0 0 0 1 0"/>
			</filter>
		</defs>
		<mask maskUnits="userSpaceOnUse" x="189.5" y="109.9" width="4.4" height="6.7" id="mask-2_8_">
			<g class="st16">
				<polygon id="path-1_8_" class="st2" points="32,123.2 303.4,123.2 303.4,75 32,75 				"/>
			</g>
		</mask>
		<polygon id="Fill-21" class="st17" points="189.5,109.9 193.7,109.9 193.7,110.7 190.5,110.7 190.5,112.6 192.9,112.6 
			192.9,113.5 190.5,113.5 190.5,115.7 194,115.7 194,116.5 189.5,116.5 		"/>
		<defs>
			<filter id="Adobe_OpacityMaskFilter_8_" filterUnits="userSpaceOnUse" x="197" y="109.9" width="4.8" height="6.7">
				<feColorMatrix  type="matrix" values="1 0 0 0 0  0 1 0 0 0  0 0 1 0 0  0 0 0 1 0"/>
			</filter>
		</defs>
		<mask maskUnits="userSpaceOnUse" x="197" y="109.9" width="4.8" height="6.7" id="mask-2_9_">
			<g class="st18">
				<polygon id="path-1_9_" class="st2" points="32,123.2 303.4,123.2 303.4,75 32,75 				"/>
			</g>
		</mask>
		<path id="Fill-22" class="st19" d="M199.2,113c0.4,0,0.7-0.1,0.9-0.3c0.2-0.2,0.3-0.5,0.3-0.8c0-0.4-0.1-0.7-0.3-0.9
			c-0.2-0.2-0.5-0.3-0.9-0.3h-1.3v2.3H199.2z M197,109.9h2.1c0.4,0,0.8,0.1,1.1,0.2c0.3,0.1,0.5,0.3,0.7,0.5
			c0.2,0.2,0.3,0.4,0.4,0.6c0.1,0.2,0.1,0.5,0.1,0.7c0,0.4-0.1,0.8-0.3,1.1c-0.2,0.3-0.5,0.6-0.9,0.7l1.6,2.9h-1.1l-1.4-2.7h-1.3
			v2.7H197V109.9z"/>
		<defs>
			<filter id="Adobe_OpacityMaskFilter_9_" filterUnits="userSpaceOnUse" x="204.7" y="109.9" width="5.6" height="6.7">
				<feColorMatrix  type="matrix" values="1 0 0 0 0  0 1 0 0 0  0 0 1 0 0  0 0 0 1 0"/>
			</filter>
		</defs>
		<mask maskUnits="userSpaceOnUse" x="204.7" y="109.9" width="5.6" height="6.7" id="mask-2_10_">
			<g class="st20">
				<polygon id="path-1_10_" class="st2" points="32,123.2 303.4,123.2 303.4,75 32,75 				"/>
			</g>
		</mask>
		<polygon id="Fill-23" class="st21" points="204.7,109.9 205.7,109.9 209.4,115.1 209.4,109.9 210.3,109.9 210.3,116.5 
			209.3,116.5 205.7,111.3 205.7,116.5 204.7,116.5 		"/>
		<defs>
			<filter id="Adobe_OpacityMaskFilter_10_" filterUnits="userSpaceOnUse" x="213.1" y="109.9" width="6.2" height="6.7">
				<feColorMatrix  type="matrix" values="1 0 0 0 0  0 1 0 0 0  0 0 1 0 0  0 0 0 1 0"/>
			</filter>
		</defs>
		<mask maskUnits="userSpaceOnUse" x="213.1" y="109.9" width="6.2" height="6.7" id="mask-2_11_">
			<g class="st22">
				<polygon id="path-1_11_" class="st2" points="32,123.2 303.4,123.2 303.4,75 32,75 				"/>
			</g>
		</mask>
		<path id="Fill-24" class="st23" d="M217.3,113.9l-1.1-2.9l-1.1,2.9H217.3z M215.7,109.9h1l2.6,6.7h-1.1l-0.7-1.9h-2.7l-0.7,1.9h-1
			L215.7,109.9z"/>
		<defs>
			<filter id="Adobe_OpacityMaskFilter_11_" filterUnits="userSpaceOnUse" x="220.8" y="109.9" width="5.7" height="6.7">
				<feColorMatrix  type="matrix" values="1 0 0 0 0  0 1 0 0 0  0 0 1 0 0  0 0 0 1 0"/>
			</filter>
		</defs>
		<mask maskUnits="userSpaceOnUse" x="220.8" y="109.9" width="5.7" height="6.7" id="mask-2_12_">
			<g class="st24">
				<polygon id="path-1_12_" class="st2" points="32,123.2 303.4,123.2 303.4,75 32,75 				"/>
			</g>
		</mask>
		<polygon id="Fill-25" class="st25" points="223.2,110.7 220.8,110.7 220.8,109.9 226.5,109.9 226.5,110.7 224.1,110.7 
			224.1,116.5 223.2,116.5 		"/>
		<defs>
			<filter id="Adobe_OpacityMaskFilter_12_" filterUnits="userSpaceOnUse" x="229.4" y="109.9" width="1" height="6.7">
				<feColorMatrix  type="matrix" values="1 0 0 0 0  0 1 0 0 0  0 0 1 0 0  0 0 0 1 0"/>
			</filter>
		</defs>
		<mask maskUnits="userSpaceOnUse" x="229.4" y="109.9" width="1" height="6.7" id="mask-2_13_">
			<g class="st26">
				<polygon id="path-1_13_" class="st2" points="32,123.2 303.4,123.2 303.4,75 32,75 				"/>
			</g>
		</mask>
		<polygon id="Fill-26" class="st27" points="229.4,116.5 230.3,116.5 230.3,109.9 229.4,109.9 		"/>
		<defs>
			<filter id="Adobe_OpacityMaskFilter_13_" filterUnits="userSpaceOnUse" x="233.5" y="109.7" width="6.8" height="7">
				<feColorMatrix  type="matrix" values="1 0 0 0 0  0 1 0 0 0  0 0 1 0 0  0 0 0 1 0"/>
			</filter>
		</defs>
		<mask maskUnits="userSpaceOnUse" x="233.5" y="109.7" width="6.8" height="7" id="mask-2_14_">
			<g class="st28">
				<polygon id="path-1_14_" class="st2" points="32,123.2 303.4,123.2 303.4,75 32,75 				"/>
			</g>
		</mask>
		<path id="Fill-27" class="st29" d="M236.9,115.8c0.4,0,0.7-0.1,1-0.2c0.3-0.1,0.6-0.3,0.8-0.6c0.2-0.2,0.4-0.5,0.5-0.8
			c0.1-0.3,0.2-0.7,0.2-1c0-0.4-0.1-0.7-0.2-1c-0.1-0.3-0.3-0.6-0.5-0.8c-0.2-0.2-0.5-0.4-0.8-0.6c-0.3-0.1-0.6-0.2-1-0.2
			c-0.4,0-0.7,0.1-1,0.2c-0.3,0.1-0.5,0.3-0.8,0.6c-0.2,0.2-0.4,0.5-0.5,0.8c-0.1,0.3-0.2,0.7-0.2,1c0,0.4,0.1,0.7,0.2,1
			c0.1,0.3,0.3,0.6,0.5,0.8c0.2,0.2,0.5,0.4,0.8,0.6C236.2,115.7,236.6,115.8,236.9,115.8 M236.9,116.7c-0.5,0-0.9-0.1-1.3-0.3
			c-0.4-0.2-0.8-0.4-1.1-0.8c-0.3-0.3-0.5-0.7-0.7-1.1c-0.2-0.4-0.3-0.9-0.3-1.4c0-0.5,0.1-0.9,0.3-1.4c0.2-0.4,0.4-0.8,0.7-1.1
			s0.7-0.6,1.1-0.8s0.9-0.3,1.3-0.3c0.5,0,0.9,0.1,1.3,0.3c0.4,0.2,0.8,0.4,1.1,0.8c0.3,0.3,0.5,0.7,0.7,1.1
			c0.2,0.4,0.3,0.9,0.3,1.4c0,0.5-0.1,0.9-0.3,1.4c-0.2,0.4-0.4,0.8-0.7,1.1c-0.3,0.3-0.7,0.6-1.1,0.8
			C237.9,116.6,237.4,116.7,236.9,116.7"/>
		<defs>
			<filter id="Adobe_OpacityMaskFilter_14_" filterUnits="userSpaceOnUse" x="243.5" y="109.9" width="5.6" height="6.7">
				<feColorMatrix  type="matrix" values="1 0 0 0 0  0 1 0 0 0  0 0 1 0 0  0 0 0 1 0"/>
			</filter>
		</defs>
		<mask maskUnits="userSpaceOnUse" x="243.5" y="109.9" width="5.6" height="6.7" id="mask-2_15_">
			<g class="st30">
				<polygon id="path-1_15_" class="st2" points="32,123.2 303.4,123.2 303.4,75 32,75 				"/>
			</g>
		</mask>
		<polygon id="Fill-28" class="st31" points="243.5,109.9 244.5,109.9 248.1,115.1 248.1,109.9 249.1,109.9 249.1,116.5 
			248.1,116.5 244.5,111.3 244.5,116.5 243.5,116.5 		"/>
		<defs>
			<filter id="Adobe_OpacityMaskFilter_15_" filterUnits="userSpaceOnUse" x="251.9" y="109.9" width="6.2" height="6.7">
				<feColorMatrix  type="matrix" values="1 0 0 0 0  0 1 0 0 0  0 0 1 0 0  0 0 0 1 0"/>
			</filter>
		</defs>
		<mask maskUnits="userSpaceOnUse" x="251.9" y="109.9" width="6.2" height="6.7" id="mask-2_16_">
			<g class="st32">
				<polygon id="path-1_16_" class="st2" points="32,123.2 303.4,123.2 303.4,75 32,75 				"/>
			</g>
		</mask>
		<path id="Fill-29" class="st33" d="M256,113.9l-1.1-2.9l-1.1,2.9H256z M254.5,109.9h1l2.6,6.7H257l-0.7-1.9h-2.7l-0.7,1.9h-1
			L254.5,109.9z"/>
		<defs>
			<filter id="Adobe_OpacityMaskFilter_16_" filterUnits="userSpaceOnUse" x="260.9" y="109.9" width="4.4" height="6.7">
				<feColorMatrix  type="matrix" values="1 0 0 0 0  0 1 0 0 0  0 0 1 0 0  0 0 0 1 0"/>
			</filter>
		</defs>
		<mask maskUnits="userSpaceOnUse" x="260.9" y="109.9" width="4.4" height="6.7" id="mask-2_17_">
			<g class="st34">
				<polygon id="path-1_17_" class="st2" points="32,123.2 303.4,123.2 303.4,75 32,75 				"/>
			</g>
		</mask>
		<polygon id="Fill-30" class="st35" points="260.9,109.9 261.9,109.9 261.9,115.7 265.3,115.7 265.3,116.5 260.9,116.5 		"/>
		<defs>
			<filter id="Adobe_OpacityMaskFilter_17_" filterUnits="userSpaceOnUse" x="186.8" y="81.4" width="13.9" height="15.1">
				<feColorMatrix  type="matrix" values="1 0 0 0 0  0 1 0 0 0  0 0 1 0 0  0 0 0 1 0"/>
			</filter>
		</defs>
		<mask maskUnits="userSpaceOnUse" x="186.8" y="81.4" width="13.9" height="15.1" id="mask-2_18_">
			<g class="st36">
				<polygon id="path-1_18_" class="st2" points="32,123.2 303.4,123.2 303.4,75 32,75 				"/>
			</g>
		</mask>
		<path id="Fill-31" class="st37" d="M192.6,81.9c-1.1,0-1.7,1-1.7,2c0,1.4,0.5,2.2,1.5,3.5c1.4-1,1.9-2.2,1.9-3.2
			C194.3,82.9,193.8,81.9,192.6,81.9z M190.6,89.2c-0.6,0.6-1.2,1.9-1.2,3.3c0,1.9,1,3.2,2.7,3.2c0.9,0,2-0.4,2.8-1.1L190.6,89.2z
			 M195.2,94.9c-1.4,1.2-3,1.6-4.1,1.6c-2.6,0-4.3-1.4-4.3-3.6c0-2.2,1.9-3.3,3.5-4.1c-1.3-1.5-2-2.7-2-4c0-2.2,1.9-3.5,4.1-3.5
			c1.8,0,3.5,1.1,3.5,2.8c0,1.2-0.7,2.5-3.1,3.5l3.9,4.7c0.3-0.5,0.8-1.5,1.1-2.2c0.3-1.1,0-1.8-2-2.1v-0.3h4.9v0.3
			c-1.7,0.2-1.9,0.8-2.4,1.8c-0.4,1.2-0.9,2.2-1.3,2.8l1.7,2.1c0.5,0.6,0.9,0.9,1.5,1v0.3h-3.8L195.2,94.9z"/>
		<defs>
			<filter id="Adobe_OpacityMaskFilter_18_" filterUnits="userSpaceOnUse" x="81.9" y="81.6" width="13.3" height="14.7">
				<feColorMatrix  type="matrix" values="1 0 0 0 0  0 1 0 0 0  0 0 1 0 0  0 0 0 1 0"/>
			</filter>
		</defs>
		<mask maskUnits="userSpaceOnUse" x="81.9" y="81.6" width="13.3" height="14.7" id="mask-2_19_">
			<g class="st38">
				<polygon id="path-1_19_" class="st2" points="32,123.2 303.4,123.2 303.4,75 32,75 				"/>
			</g>
		</mask>
		<polygon id="Fill-32" class="st39" points="81.9,81.6 85.2,81.6 85.2,87.7 91.9,87.7 91.9,81.6 95.2,81.6 95.2,96.3 91.9,96.3 
			91.9,90.5 85.2,90.5 85.2,96.3 81.9,96.3 		"/>
		<defs>
			<filter id="Adobe_OpacityMaskFilter_19_" filterUnits="userSpaceOnUse" x="101.6" y="81.4" width="15.8" height="15.2">
				<feColorMatrix  type="matrix" values="1 0 0 0 0  0 1 0 0 0  0 0 1 0 0  0 0 0 1 0"/>
			</filter>
		</defs>
		<mask maskUnits="userSpaceOnUse" x="101.6" y="81.4" width="15.8" height="15.2" id="mask-2_20_">
			<g class="st40">
				<polygon id="path-1_20_" class="st2" points="32,123.2 303.4,123.2 303.4,75 32,75 				"/>
			</g>
		</mask>
		<path id="Fill-33" class="st41" d="M107.2,84.9c-0.7,0.4-1.3,1-1.7,1.7c-0.4,0.7-0.6,1.5-0.6,2.4c0,0.9,0.2,1.7,0.6,2.4
			c0.4,0.7,1,1.3,1.7,1.7c0.7,0.4,1.4,0.6,2.3,0.6c0.8,0,1.6-0.2,2.2-0.6c0.7-0.4,1.2-1,1.6-1.7c0.4-0.7,0.6-1.5,0.6-2.4
			c0-0.9-0.2-1.6-0.6-2.4c-0.4-0.7-0.9-1.3-1.6-1.7c-0.7-0.4-1.4-0.6-2.2-0.6C108.7,84.3,107.9,84.5,107.2,84.9 M113.5,82.4
			c1.2,0.7,2.2,1.6,2.8,2.7c0.7,1.2,1,2.4,1,3.9s-0.3,2.7-1,3.9c-0.7,1.2-1.6,2.1-2.8,2.7c-1.2,0.7-2.5,1-4,1c-1.5,0-2.8-0.3-4-1
			c-1.2-0.7-2.2-1.6-2.8-2.7c-0.7-1.2-1-2.4-1-3.9c0-1.4,0.3-2.7,1-3.9c0.7-1.2,1.6-2.1,2.8-2.7c1.2-0.7,2.5-1,4-1
			C110.9,81.4,112.3,81.7,113.5,82.4"/>
		<defs>
			<filter id="Adobe_OpacityMaskFilter_20_" filterUnits="userSpaceOnUse" x="123.7" y="81.6" width="16.5" height="14.7">
				<feColorMatrix  type="matrix" values="1 0 0 0 0  0 1 0 0 0  0 0 1 0 0  0 0 0 1 0"/>
			</filter>
		</defs>
		<mask maskUnits="userSpaceOnUse" x="123.7" y="81.6" width="16.5" height="14.7" id="mask-2_21_">
			<g class="st42">
				<polygon id="path-1_21_" class="st2" points="32,123.2 303.4,123.2 303.4,75 32,75 				"/>
			</g>
		</mask>
		<polygon id="Fill-34" class="st43" points="123.7,81.6 127.4,81.6 132,90.6 136.5,81.6 140.2,81.6 140.2,96.3 137.2,96.3 
			137.2,86.4 133.1,94.8 130.9,94.8 126.7,86.4 126.7,96.3 123.7,96.3 		"/>
		<defs>
			<filter id="Adobe_OpacityMaskFilter_21_" filterUnits="userSpaceOnUse" x="147.7" y="81.6" width="11.4" height="14.7">
				<feColorMatrix  type="matrix" values="1 0 0 0 0  0 1 0 0 0  0 0 1 0 0  0 0 0 1 0"/>
			</filter>
		</defs>
		<mask maskUnits="userSpaceOnUse" x="147.7" y="81.6" width="11.4" height="14.7" id="mask-2_22_">
			<g class="st44">
				<polygon id="path-1_22_" class="st2" points="32,123.2 303.4,123.2 303.4,75 32,75 				"/>
			</g>
		</mask>
		<polygon id="Fill-35" class="st45" points="147.7,81.6 158.9,81.6 158.9,84.4 151,84.4 151,87.6 158.1,87.6 158.1,90.3 151,90.3 
			151,93.6 159.1,93.6 159.1,96.3 147.7,96.3 		"/>
		<defs>
			<filter id="Adobe_OpacityMaskFilter_22_" filterUnits="userSpaceOnUse" x="164.7" y="81.3" width="12.2" height="15.2">
				<feColorMatrix  type="matrix" values="1 0 0 0 0  0 1 0 0 0  0 0 1 0 0  0 0 0 1 0"/>
			</filter>
		</defs>
		<mask maskUnits="userSpaceOnUse" x="164.7" y="81.3" width="12.2" height="15.2" id="mask-2_23_">
			<g class="st46">
				<polygon id="path-1_23_" class="st2" points="32,123.2 303.4,123.2 303.4,75 32,75 				"/>
			</g>
		</mask>
		<path id="Fill-36" class="st47" d="M173.2,84.6c-0.8-0.3-1.6-0.4-2.2-0.4c-0.6,0-1,0.1-1.4,0.3c-0.3,0.2-0.5,0.5-0.5,0.9
			c0,0.5,0.2,0.9,0.7,1.2c0.5,0.3,1.2,0.6,2.2,0.8c1,0.3,1.8,0.6,2.5,0.9s1.2,0.7,1.7,1.3c0.5,0.6,0.7,1.4,0.7,2.3
			c0,0.9-0.2,1.7-0.7,2.4c-0.5,0.7-1.2,1.2-2,1.5c-0.9,0.3-1.9,0.5-3,0.5c-1.2,0-2.4-0.2-3.5-0.6c-1.1-0.4-2.1-1-3-1.7l1.3-2.7
			c0.7,0.7,1.6,1.2,2.6,1.6c1,0.4,1.8,0.6,2.6,0.6c0.7,0,1.2-0.1,1.6-0.4c0.4-0.3,0.6-0.6,0.6-1.1c0-0.4-0.1-0.7-0.4-0.9
			c-0.3-0.2-0.6-0.4-1-0.6s-0.9-0.3-1.6-0.5c-1-0.3-1.8-0.6-2.5-0.8c-0.6-0.3-1.2-0.7-1.6-1.3c-0.5-0.6-0.7-1.3-0.7-2.3
			c0-0.9,0.2-1.7,0.7-2.3c0.5-0.7,1.1-1.2,2-1.5c0.9-0.4,1.8-0.5,3-0.5c1,0,2,0.1,3,0.4c1,0.3,1.8,0.7,2.6,1.2l-1.3,2.8
			C174.8,85.2,174,84.9,173.2,84.6"/>
		<defs>
			<filter id="Adobe_OpacityMaskFilter_23_" filterUnits="userSpaceOnUse" x="208.3" y="81.6" width="15" height="14.7">
				<feColorMatrix  type="matrix" values="1 0 0 0 0  0 1 0 0 0  0 0 1 0 0  0 0 0 1 0"/>
			</filter>
		</defs>
		<mask maskUnits="userSpaceOnUse" x="208.3" y="81.6" width="15" height="14.7" id="mask-2_24_">
			<g class="st48">
				<polygon id="path-1_24_" class="st2" points="32,123.2 303.4,123.2 303.4,75 32,75 				"/>
			</g>
		</mask>
		<polygon id="Fill-37" class="st49" points="208.3,81.6 211.9,81.6 215.9,92.7 219.9,81.6 223.3,81.6 217.5,96.3 214.1,96.3 		"/>
		<defs>
			<filter id="Adobe_OpacityMaskFilter_24_" filterUnits="userSpaceOnUse" x="229.3" y="81.6" width="3.3" height="14.7">
				<feColorMatrix  type="matrix" values="1 0 0 0 0  0 1 0 0 0  0 0 1 0 0  0 0 0 1 0"/>
			</filter>
		</defs>
		<mask maskUnits="userSpaceOnUse" x="229.3" y="81.6" width="3.3" height="14.7" id="mask-2_25_">
			<g class="st50">
				<polygon id="path-1_25_" class="st2" points="32,123.2 303.4,123.2 303.4,75 32,75 				"/>
			</g>
		</mask>
		<polygon id="Fill-38" class="st51" points="229.3,96.3 232.6,96.3 232.6,81.6 229.3,81.6 		"/>
		<defs>
			<filter id="Adobe_OpacityMaskFilter_25_" filterUnits="userSpaceOnUse" x="240.2" y="81.6" width="9.6" height="14.7">
				<feColorMatrix  type="matrix" values="1 0 0 0 0  0 1 0 0 0  0 0 1 0 0  0 0 0 1 0"/>
			</filter>
		</defs>
		<mask maskUnits="userSpaceOnUse" x="240.2" y="81.6" width="9.6" height="14.7" id="mask-2_26_">
			<g class="st52">
				<polygon id="path-1_26_" class="st2" points="32,123.2 303.4,123.2 303.4,75 32,75 				"/>
			</g>
		</mask>
		<polygon id="Fill-39" class="st53" points="240.2,81.6 243.5,81.6 243.5,93.4 249.8,93.4 249.8,96.3 240.2,96.3 		"/>
		<defs>
			<filter id="Adobe_OpacityMaskFilter_26_" filterUnits="userSpaceOnUse" x="256.1" y="81.6" width="9.6" height="14.7">
				<feColorMatrix  type="matrix" values="1 0 0 0 0  0 1 0 0 0  0 0 1 0 0  0 0 0 1 0"/>
			</filter>
		</defs>
		<mask maskUnits="userSpaceOnUse" x="256.1" y="81.6" width="9.6" height="14.7" id="mask-2_27_">
			<g class="st54">
				<polygon id="path-1_27_" class="st2" points="32,123.2 303.4,123.2 303.4,75 32,75 				"/>
			</g>
		</mask>
		<polygon id="Fill-40" class="st55" points="256.1,81.6 259.5,81.6 259.5,93.4 265.8,93.4 265.8,96.3 256.1,96.3 		"/>
		<defs>
			<filter id="Adobe_OpacityMaskFilter_27_" filterUnits="userSpaceOnUse" x="270.5" y="81.6" width="16.1" height="14.7">
				<feColorMatrix  type="matrix" values="1 0 0 0 0  0 1 0 0 0  0 0 1 0 0  0 0 0 1 0"/>
			</filter>
		</defs>
		<mask maskUnits="userSpaceOnUse" x="270.5" y="81.6" width="16.1" height="14.7" id="mask-2_28_">
			<g class="st56">
				<polygon id="path-1_28_" class="st2" points="32,123.2 303.4,123.2 303.4,75 32,75 				"/>
			</g>
		</mask>
		<path id="Fill-41" class="st57" d="M276.2,90.8h4.6l-2.3-5.7L276.2,90.8z M283,96.3l-1.2-2.9h-6.8l-1.2,2.9h-3.4l6.4-14.7h3.4
			l6.3,14.7H283z"/>
		<defs>
			<filter id="Adobe_OpacityMaskFilter_28_" filterUnits="userSpaceOnUse" x="291.2" y="81.3" width="12.2" height="15.2">
				<feColorMatrix  type="matrix" values="1 0 0 0 0  0 1 0 0 0  0 0 1 0 0  0 0 0 1 0"/>
			</filter>
		</defs>
		<mask maskUnits="userSpaceOnUse" x="291.2" y="81.3" width="12.2" height="15.2" id="mask-2_29_">
			<g class="st58">
				<polygon id="path-1_29_" class="st2" points="32,123.2 303.4,123.2 303.4,75 32,75 				"/>
			</g>
		</mask>
		<path id="Fill-42" class="st59" d="M299.6,84.6c-0.8-0.3-1.6-0.4-2.2-0.4c-0.6,0-1,0.1-1.4,0.3c-0.3,0.2-0.5,0.5-0.5,0.9
			c0,0.5,0.2,0.9,0.7,1.2c0.5,0.3,1.2,0.6,2.2,0.8c1,0.3,1.8,0.6,2.5,0.9s1.2,0.7,1.7,1.3c0.5,0.6,0.7,1.4,0.7,2.3
			c0,0.9-0.2,1.7-0.7,2.4c-0.5,0.7-1.2,1.2-2,1.5c-0.9,0.3-1.9,0.5-3,0.5c-1.2,0-2.4-0.2-3.5-0.6c-1.1-0.4-2.1-1-3-1.7l1.3-2.7
			c0.7,0.7,1.6,1.2,2.6,1.6c1,0.4,1.8,0.6,2.6,0.6c0.7,0,1.2-0.1,1.6-0.4c0.4-0.3,0.6-0.6,0.6-1.1c0-0.4-0.1-0.7-0.4-0.9
			c-0.3-0.2-0.6-0.4-1-0.6c-0.4-0.2-0.9-0.3-1.6-0.5c-1-0.3-1.8-0.6-2.5-0.8c-0.6-0.3-1.2-0.7-1.6-1.3c-0.5-0.6-0.7-1.3-0.7-2.3
			c0-0.9,0.2-1.7,0.7-2.3c0.5-0.7,1.1-1.2,2-1.5c0.9-0.4,1.8-0.5,3-0.5c1,0,2,0.1,3,0.4c1,0.3,1.8,0.7,2.6,1.2l-1.3,2.8
			C301.3,85.2,300.5,84.9,299.6,84.6"/>
		<defs>
			<filter id="Adobe_OpacityMaskFilter_29_" filterUnits="userSpaceOnUse" x="32" y="75" width="37.6" height="48.2">
				<feColorMatrix  type="matrix" values="1 0 0 0 0  0 1 0 0 0  0 0 1 0 0  0 0 0 1 0"/>
			</filter>
		</defs>
		<mask maskUnits="userSpaceOnUse" x="32" y="75" width="37.6" height="48.2" id="mask-2_30_">
			<g class="st60">
				<polygon id="path-1_30_" class="st2" points="32,123.2 303.4,123.2 303.4,75 32,75 				"/>
			</g>
		</mask>
		<path id="Fill-43" class="st61" d="M64.2,121.2V85h-0.1l3.5-5.5v41.8H64.2z M34,79.5l3.5,5.5h-0.1v36.3H34V79.5z M48,77h5.7
			l-2.8,4.5L48,77z M50.8,85.3L56,77h4.2l-9.4,15l-9.4-15h4.2L50.8,85.3z M50.8,102.4L34.8,77H39l11.8,18.8L62.6,77h4.2L50.8,102.4z
			 M58.8,93.5l3.4-5.5v33.2h-3.4L58.8,93.5L58.8,93.5z M44.8,121.2h12v-4.8h-12V121.2z M44.8,103.7v-7l4.4,7H44.8z M56.8,103.7h-4.4
			l4.4-7V103.7z M56.8,109.1h-12v-3.4h5.7h0.6h5.7V109.1z M44.8,114.5h12v-3.4h-12V114.5z M42.8,93.5L42.8,93.5l0,27.7h-3.4V88.1
			L42.8,93.5z M32,123.2h37.6V75H32V123.2z"/>
	</g>
</g>
</svg>
